<svg width="500" height="500" viewBox="0 0 500 500" fill="none" xmlns="http://www.w3.org/2000/svg">
<rect width="500" height="500" rx="20" fill="#202020"/>
<path d="M243.949 150.998L82.4428 337.767C77.9615 342.95 81.6429 351 88.4941 351H140.884C143.207 351 145.416 349.99 146.936 348.233L243.949 236.044C247.139 232.355 252.861 232.355 256.051 236.044L353.064 348.233C354.584 349.99 356.793 351 359.116 351H411.506C418.357 351 422.039 342.95 417.557 337.767L256.051 150.998C252.861 147.308 247.139 147.308 243.949 150.998Z" fill="#FFDB4A"/>
<path d="M243.949 301.835L212.877 337.767C208.396 342.95 212.077 351 218.928 351H281.072C287.923 351 291.604 342.95 287.123 337.767L256.051 301.835C252.861 298.145 247.139 298.145 243.949 301.835Z" fill="#FFDB4A"/>
<path d="M243.949 150.998L82.4428 337.767C77.9615 342.95 81.6429 351 88.4941 351H140.884C143.207 351 145.416 349.99 146.936 348.233L243.949 236.044C247.139 232.355 252.861 232.355 256.051 236.044L353.064 348.233C354.584 349.99 356.793 351 359.116 351H411.506C418.357 351 422.039 342.95 417.557 337.767L256.051 150.998C252.861 147.308 247.139 147.308 243.949 150.998Z" stroke="white"/>
<path d="M243.949 301.835L212.877 337.767C208.396 342.95 212.077 351 218.928 351H281.072C287.923 351 291.604 342.95 287.123 337.767L256.051 301.835C252.861 298.145 247.139 298.145 243.949 301.835Z" stroke="white"/>
</svg>
